<svg width="32" height="23" viewBox="0 0 32 23" fill="none" xmlns="http://www.w3.org/2000/svg">
<path d="M31.0869 16.2601L24.0869 14.2157C23.7878 14.1289 23.4555 14.1106 23.1399 14.1636C22.8243 14.2166 22.5425 14.338 22.3369 14.5096L19.2369 17.0906C14.3717 15.5274 10.4564 12.8593 8.1625 9.544L11.95 7.43153C12.2023 7.29169 12.3809 7.09965 12.4587 6.88448C12.5365 6.6693 12.5093 6.44271 12.3813 6.239L9.38125 1.46889C9.2407 1.24929 8.99211 1.07001 8.67834 0.961934C8.36458 0.853862 8.00532 0.823783 7.6625 0.876882L1.1625 1.89905C0.831981 1.95106 0.537091 2.07788 0.325959 2.2588C0.114828 2.43973 -7.61381e-05 2.66408 3.78513e-08 2.89524C3.78513e-08 13.8196 12.9937 22.6571 29 22.6571C29.3393 22.6573 29.6687 22.579 29.9343 22.4351C30.2 22.2913 30.3862 22.0902 30.4625 21.8649L31.9625 17.4356C32.0399 17.2008 31.9948 16.955 31.835 16.7405C31.6752 16.5259 31.4107 16.356 31.0869 16.2601Z" fill="white"/>
</svg>
